<svg xmlns="http://www.w3.org/2000/svg" xmlns:xlink="http://www.w3.org/1999/xlink" width="80" height="80" viewBox="0 0 80 80">
  <defs>
    <clipPath id="clip-Artboard_6">
      <rect width="80" height="80"/>
    </clipPath>
  </defs>
  <g id="Artboard_6" data-name="Artboard – 6" clip-path="url(#clip-Artboard_6)">
    <rect width="80" height="80" fill="#3e5bb9"/>
    <path id="external-link-alt-solid" d="M42.188,29.891H39.063A1.53,1.53,0,0,0,37.5,31.385V41.847H6.25V11.956H20.313a1.53,1.53,0,0,0,1.562-1.495V7.473a1.53,1.53,0,0,0-1.562-1.495H4.687A4.589,4.589,0,0,0,0,10.462v32.88a4.589,4.589,0,0,0,4.687,4.484H39.063a4.589,4.589,0,0,0,4.688-4.484V31.385A1.53,1.53,0,0,0,42.188,29.891ZM47.656,0h-12.5A2.236,2.236,0,0,0,33.5,3.83l3.489,3.337-23.8,22.758a2.174,2.174,0,0,0,0,3.176L15.4,35.215a2.42,2.42,0,0,0,3.32,0l23.79-22.762L46,15.786A2.363,2.363,0,0,0,50,14.2V2.242A2.294,2.294,0,0,0,47.656,0Z" transform="translate(15 16.538)" fill="#fff"/>
  </g>
</svg>
